Coordinates
version=1
nRows=13
nColumns=34
inDegrees=no

Units are S.I. units (second, meters, Newtons, ...)
If the header above contains a line with 'inDegrees', this indicates whether rotational values are in degrees (yes) or radians (no).

endheader
time	pelvis_tilt	pelvis_list	pelvis_rotation	pelvis_tx	pelvis_ty	pelvis_tz	hip_flexion_r	hip_adduction_r	hip_rotation_r	knee_angle_r	ankle_angle_r	subtalar_angle_r	mtp_angle_r	hip_flexion_l	hip_adduction_l	hip_rotation_l	knee_angle_l	ankle_angle_l	subtalar_angle_l	mtp_angle_l	lumbar_extension	lumbar_bending	lumbar_rotation	arm_flex_r	arm_add_r	arm_rot_r	elbow_flex_r	pro_sup_r	arm_flex_l	arm_add_l	arm_rot_l	elbow_flex_l	pro_sup_l
0.89	-0.00849955	0.0285517	-0.0546158	0.938108	0.965269	-0.285796	0.494541	-0.193974	-0.324408	0.679397	0.112985	-0.147201	0	0.00763673	0.0462451	-0.168006	0.140364	0.225206	-0.0630026	0	-0.0951058	-0.025388	-0.135187	-0.19667	-0.0977629	-0.310155	0.481902	2.09	0.188116	-0.216748	-0.135727	0.81501	2.09
0.9	-0.0100583	0.0298016	-0.0485146	0.949144	0.96435	-0.286612	0.500382	-0.195535	-0.350158	0.629251	0.130701	-0.104922	0	-0.00837794	0.0499291	-0.158026	0.131189	0.230228	-0.0693078	0	-0.094235	-0.0256533	-0.141413	-0.210735	-0.0970591	-0.324671	0.469186	2.09	0.202545	-0.21967	-0.125867	0.836071	2.09
0.91	-0.0111843	0.0320409	-0.0423468	0.960237	0.963192	-0.287351	0.504836	-0.19791	-0.37593	0.579226	0.146844	-0.0597754	0	-0.0250209	0.0545192	-0.146634	0.121873	0.234568	-0.0777096	0	-0.0938311	-0.0271238	-0.147356	-0.225084	-0.0960619	-0.339262	0.458265	2.09	0.216909	-0.222667	-0.11562	0.85631	2.09
0.92	-0.0118837	0.0350901	-0.0362157	0.971391	0.961813	-0.287992	0.50803	-0.200684	-0.40107	0.529638	0.161088	-0.0137019	0	-0.0423471	0.0597168	-0.134346	0.112407	0.238525	-0.08736	0	-0.0939051	-0.0296003	-0.152974	-0.239608	-0.094755	-0.353775	0.448993	2.09	0.231131	-0.225744	-0.105006	0.875702	2.09
0.93	-0.0122171	0.0387032	-0.0302367	0.982603	0.960234	-0.28851	0.510178	-0.203387	-0.424766	0.480829	0.173563	0.0312091	0	-0.0602436	0.0651582	-0.121558	0.102943	0.24234	-0.097658	0	-0.094414	-0.0328113	-0.158231	-0.254174	-0.0931561	-0.368017	0.441268	2.09	0.245111	-0.228882	-0.0941179	0.894218	2.09
0.94	-0.0122866	0.042606	-0.0245347	0.993868	0.958475	-0.288877	0.511546	-0.205547	-0.446037	0.433144	0.184661	0.0729707	0	-0.0784204	0.0704594	-0.108705	0.0938355	0.246258	-0.108034	0	-0.0952745	-0.036463	-0.163096	-0.268618	-0.0913246	-0.381665	0.43504	2.09	0.258733	-0.232049	-0.0831117	0.91182	2.09
0.95	-0.0122168	0.0465207	-0.0192225	1.00517	0.956562	-0.289068	0.512396	-0.206761	-0.463902	0.386918	0.1948	0.109926	0	-0.0964721	0.0752587	-0.0963333	0.0855619	0.250567	-0.117842	0	-0.096377	-0.0402667	-0.167538	-0.282766	-0.0893496	-0.3943	0.430274	2.09	0.271868	-0.235189	-0.0721926	0.928463	2.09
0.96	-0.0122249	0.0501839	-0.0144745	1.0165	0.954517	-0.289046	0.513056	-0.206271	-0.475781	0.342104	0.203226	0.137938	0	-0.113691	0.079163	-0.0862973	0.0789809	0.256452	-0.124412	0	-0.0974994	-0.0439805	-0.171483	-0.296384	-0.0874132	-0.404937	0.426674	2.09	0.284316	-0.238242	-0.0617085	0.944145	2.09
0.97	-0.0121447	0.0534688	-0.0101442	1.02787	0.952381	-0.288831	0.513289	-0.204942	-0.484756	0.299797	0.211897	0.161791	0	-0.130283	0.0821814	-0.0773779	0.0739631	0.262895	-0.12979	0	-0.0988156	-0.0474216	-0.175014	-0.309427	-0.0854086	-0.414431	0.424459	2.09	0.296029	-0.241101	-0.051694	0.958746	2.09
0.98	-0.0120913	0.0562687	-0.00629202	1.03929	0.950179	-0.288412	0.513283	-0.202571	-0.490163	0.260399	0.220025	0.179826	0	-0.145916	0.0842077	-0.0703323	0.0708805	0.270216	-0.132953	0	-0.100165	-0.0504806	-0.178109	-0.321746	-0.0834554	-0.42224	0.423219	2.09	0.306782	-0.243652	-0.0425134	0.972298	2.09
0.99	-0.0118669	0.0585753	-0.00285411	1.05076	0.947945	-0.287813	0.51297	-0.199829	-0.495	0.225245	0.228492	0.196144	0	-0.160769	0.085261	-0.0656198	0.069828	0.27857	-0.132983	0	-0.101728	-0.0530442	-0.180594	-0.333513	-0.0809815	-0.431905	0.423804	2.09	0.316646	-0.245711	-0.0340264	0.984576	2.09
1	-0.0119287	0.0603898	0.000181821	1.06233	0.945685	-0.287032	0.51274	-0.195766	-0.493369	0.193842	0.234027	0.201303	0	-0.174227	0.0853498	-0.0634894	0.0710277	0.287856	-0.129434	0	-0.10291	-0.0552618	-0.183145	-0.343981	-0.0797516	-0.433475	0.422667	2.09	0.324658	-0.247312	-0.0276992	0.996439	2.09
1.01	-0.0117551	0.0617918	0.00296517	1.074	0.943448	-0.286122	0.512306	-0.191673	-0.490265	0.16828	0.238895	0.203448	0	-0.187014	0.0845899	-0.0638697	0.0742112	0.297805	-0.122031	0	-0.104274	-0.0569633	-0.185286	-0.353773	-0.0781997	-0.436371	0.422635	2.09	0.331358	-0.248182	-0.0226114	1.00723	2.09
